<?xml version="1.0" standalone="no"?>
<!DOCTYPE svg PUBLIC "-//W3C//DTD SVG 20010904//EN"
 "http://www.w3.org/TR/2001/REC-SVG-20010904/DTD/svg10.dtd">
<svg version="1.0" xmlns="http://www.w3.org/2000/svg"
 width="512.000000pt" height="512.000000pt" viewBox="0 0 512.000000 512.000000"
 preserveAspectRatio="xMidYMid meet">

<g transform="translate(0.000000,512.000000) scale(0.100000,-0.100000)"
fill="#000000" stroke="none">
<path d="M585 4285 c-23 -22 -25 -32 -25 -120 l0 -95 -215 0 c-216 0 -216 0
-240 -25 l-25 -24 0 -1586 0 -1586 25 -24 24 -25 2431 0 2431 0 24 25 25 24 0
1586 0 1586 -25 24 c-24 25 -24 25 -240 25 l-215 0 0 95 c0 88 -2 98 -25 120
l-24 25 -823 0 c-655 0 -833 -3 -873 -14 -78 -20 -149 -61 -204 -116 l-51 -51
-51 51 c-55 55 -126 96 -204 116 -40 11 -218 14 -873 14 l-823 0 -24 -25z
m1735 -164 c61 -32 97 -67 128 -126 l27 -50 3 -1332 2 -1333 -880 0 -880 0 0
1435 0 1435 778 -2 777 -3 45 -24z m2080 -1406 l0 -1435 -880 0 -880 0 2 1333
3 1332 24 45 c40 77 98 125 181 151 14 4 368 8 788 8 l762 1 0 -1435z"/>
<path d="M825 3815 l-25 -24 0 -351 0 -351 25 -24 24 -25 751 0 751 0 24 25
25 24 0 351 0 351 -25 24 -24 25 -751 0 -751 0 -24 -25z m1415 -375 l0 -240
-640 0 -640 0 0 240 0 240 640 0 640 0 0 -240z"/>
<path d="M825 2855 c-16 -15 -25 -36 -25 -55 0 -19 9 -40 25 -55 l24 -25 751
0 751 0 24 25 c33 32 33 78 0 110 l-24 25 -751 0 -751 0 -24 -25z"/>
<path d="M825 2535 c-16 -15 -25 -36 -25 -55 0 -19 9 -40 25 -55 l24 -25 751
0 751 0 24 25 c33 32 33 78 0 110 l-24 25 -751 0 -751 0 -24 -25z"/>
<path d="M825 2215 c-16 -15 -25 -36 -25 -55 0 -19 9 -40 25 -55 l24 -25 586
0 586 0 24 25 c16 15 25 36 25 55 0 19 -9 40 -25 55 l-24 25 -586 0 -586 0
-24 -25z"/>
<path d="M2185 2215 c-16 -15 -25 -36 -25 -55 0 -19 9 -40 25 -55 21 -22 33
-25 95 -25 62 0 74 3 95 25 16 15 25 36 25 55 0 19 -9 40 -25 55 -21 22 -33
25 -95 25 -62 0 -74 -3 -95 -25z"/>
<path d="M825 1895 c-16 -15 -25 -36 -25 -55 0 -19 9 -40 25 -55 l24 -25 751
0 751 0 24 25 c33 32 33 78 0 110 l-24 25 -751 0 -751 0 -24 -25z"/>
<path d="M825 1575 c-16 -15 -25 -36 -25 -55 0 -19 9 -40 25 -55 l24 -25 506
0 506 0 24 25 c16 15 25 36 25 55 0 19 -9 40 -25 55 l-24 25 -506 0 -506 0
-24 -25z"/>
<path d="M2745 3815 c-16 -15 -25 -36 -25 -55 0 -19 9 -40 25 -55 l24 -25 751
0 751 0 24 25 c33 32 33 78 0 110 l-24 25 -751 0 -751 0 -24 -25z"/>
<path d="M2745 3495 c-16 -15 -25 -36 -25 -55 0 -19 9 -40 25 -55 l24 -25 751
0 751 0 24 25 c33 32 33 78 0 110 l-24 25 -751 0 -751 0 -24 -25z"/>
<path d="M2745 3175 c-16 -15 -25 -36 -25 -55 0 -19 9 -40 25 -55 l24 -25 586
0 586 0 24 25 c16 15 25 36 25 55 0 19 -9 40 -25 55 l-24 25 -586 0 -586 0
-24 -25z"/>
<path d="M4105 3175 c-16 -15 -25 -36 -25 -55 0 -19 9 -40 25 -55 21 -22 33
-25 95 -25 62 0 74 3 95 25 16 15 25 36 25 55 0 19 -9 40 -25 55 -21 22 -33
25 -95 25 -62 0 -74 -3 -95 -25z"/>
<path d="M2745 2855 c-16 -15 -25 -36 -25 -55 0 -19 9 -40 25 -55 l24 -25 751
0 751 0 24 25 c33 32 33 78 0 110 l-24 25 -751 0 -751 0 -24 -25z"/>
<path d="M2745 2535 c-16 -15 -25 -36 -25 -55 0 -19 9 -40 25 -55 l24 -25 751
0 751 0 24 25 c33 32 33 78 0 110 l-24 25 -751 0 -751 0 -24 -25z"/>
<path d="M2745 2215 c-16 -15 -25 -36 -25 -55 0 -19 9 -40 25 -55 l24 -25 231
0 231 0 24 25 c16 15 25 36 25 55 0 19 -9 40 -25 55 l-24 25 -231 0 -231 0
-24 -25z"/>
<path d="M3385 2215 l-25 -24 0 -351 0 -351 25 -24 24 -25 431 0 431 0 24 25
25 24 0 351 0 351 -25 24 -24 25 -431 0 -431 0 -24 -25z m775 -375 l0 -240
-320 0 -320 0 0 240 0 240 320 0 320 0 0 -240z"/>
<path d="M2745 1895 c-16 -15 -25 -36 -25 -55 0 -19 9 -40 25 -55 l24 -25 231
0 231 0 24 25 c16 15 25 36 25 55 0 19 -9 40 -25 55 l-24 25 -231 0 -231 0
-24 -25z"/>
<path d="M2745 1575 c-16 -15 -25 -36 -25 -55 0 -19 9 -40 25 -55 l24 -25 231
0 231 0 24 25 c16 15 25 36 25 55 0 19 -9 40 -25 55 l-24 25 -231 0 -231 0
-24 -25z"/>
</g>
</svg>
