<svg xmlns="http://www.w3.org/2000/svg"  viewBox="0 0 100 100" width="200px" height="200px" clip-rule="evenodd"><path fill="#c7ede6" d="M87.215,56.71C88.35,54.555,89,52.105,89,49.5c0-6.621-4.159-12.257-10.001-14.478 C78.999,35.015,79,35.008,79,35c0-11.598-9.402-21-21-21c-9.784,0-17.981,6.701-20.313,15.757C36.211,29.272,34.638,29,33,29 c-7.692,0-14.023,5.793-14.89,13.252C12.906,43.353,9,47.969,9,53.5C9,59.851,14.149,65,20.5,65c0.177,0,0.352-0.012,0.526-0.022 C21.022,65.153,21,65.324,21,65.5C21,76.822,30.178,86,41.5,86c6.437,0,12.175-2.972,15.934-7.614C59.612,80.611,62.64,82,66,82 c4.65,0,8.674-2.65,10.666-6.518C77.718,75.817,78.837,76,80,76c6.075,0,11-4.925,11-11C91,61.689,89.53,58.727,87.215,56.71z"/><path fill="#fff" d="M15.5,51h-10C5.224,51,5,50.776,5,50.5S5.224,50,5.5,50h10c0.276,0,0.5,0.224,0.5,0.5 S15.777,51,15.5,51z M18.5,51h-1c-0.276,0-0.5-0.224-0.5-0.5s0.224-0.5,0.5-0.5h1c0.276,0,0.5,0.224,0.5,0.5S18.777,51,18.5,51z M23.491,53H14.5c-0.276,0-0.5-0.224-0.5-0.5s0.224-0.5,0.5-0.5h8.991c0.276,0,0.5,0.224,0.5,0.5S23.767,53,23.491,53z M12.5,53h-1 c-0.276,0-0.5-0.224-0.5-0.5s0.224-0.5,0.5-0.5h1c0.276,0,0.5,0.224,0.5,0.5S12.777,53,12.5,53z M9.5,53h-2 C7.224,53,7,52.776,7,52.5S7.224,52,7.5,52h2c0.276,0,0.5,0.224,0.5,0.5S9.777,53,9.5,53z M15.5,55h-2c-0.276,0-0.5-0.224-0.5-0.5 s0.224-0.5,0.5-0.5h2c0.276,0,0.5,0.224,0.5,0.5S15.776,55,15.5,55z M18.5,46c-0.177,0-0.823,0-1,0c-0.276,0-0.5,0.224-0.5,0.5 s0.224,0.5,0.5,0.5c0.177,0,0.823,0,1,0c0.276,0,0.5-0.224,0.5-0.5S18.776,46,18.5,46z M18.5,48c-0.177,0-4.823,0-5,0 c-0.276,0-0.5,0.224-0.5,0.5s0.224,0.5,0.5,0.5c0.177,0,4.823,0,5,0c0.276,0,0.5-0.224,0.5-0.5S18.776,48,18.5,48z M23.5,50 c-0.177,0-2.823,0-3,0c-0.276,0-0.5,0.224-0.5,0.5s0.224,0.5,0.5,0.5c0.177,0,2.823,0,3,0c0.276,0,0.5-0.224,0.5-0.5 S23.776,50,23.5,50z"/><path fill="#fdfcef" d="M32.5,72.242c0,0,1.567,0,3.5,0s3.5-1.567,3.5-3.5c0-1.781-1.335-3.234-3.055-3.455 c0.028-0.179,0.055-0.358,0.055-0.545c0-1.933-1.567-3.5-3.5-3.5c-1.032,0-1.95,0.455-2.59,1.165 c-0.384-1.808-1.987-3.165-3.91-3.165c-2.209,0-4,1.791-4,4c0,0.191,0.03,0.374,0.056,0.558c-0.428-0.344-0.964-0.558-1.556-0.558 c-1.228,0-2.245,0.887-2.455,2.055c-0.179-0.028-0.358-0.055-0.545-0.055c-1.933,0-3.5,1.567-3.5,3.5s1.567,3.5,3.5,3.5 s7.5,0,7.5,0v0.5h7V72.242z"/><circle cx="27.5" cy="72.242" r=".5" fill="#472b29"/><path fill="#472b29" d="M36,72.742h-3.5c-0.276,0-0.5-0.224-0.5-0.5s0.224-0.5,0.5-0.5H36c1.654,0,3-1.346,3-3 c0-1.496-1.125-2.768-2.618-2.959c-0.134-0.018-0.255-0.088-0.336-0.196s-0.115-0.244-0.094-0.377 C35.975,65.056,36,64.902,36,64.742c0-1.654-1.346-3-3-3c-0.85,0-1.638,0.355-2.219,1c-0.125,0.139-0.321,0.198-0.5,0.148 c-0.182-0.049-0.321-0.195-0.36-0.379c-0.341-1.604-1.78-2.769-3.421-2.769c-1.93,0-3.5,1.57-3.5,3.5 c0,0.143,0.021,0.28,0.041,0.418c0.029,0.203-0.063,0.438-0.242,0.54s-0.396,0.118-0.556-0.01 c-0.365-0.293-0.794-0.448-1.243-0.448c-0.966,0-1.792,0.691-1.963,1.644c-0.048,0.267-0.296,0.446-0.569,0.405 c-0.154-0.024-0.308-0.049-0.468-0.049c-1.654,0-3,1.346-3,3s1.346,3,3,3h7.5c0.276,0,0.5,0.224,0.5,0.5s-0.224,0.5-0.5,0.5H18 c-2.206,0-4-1.794-4-4s1.794-4,4-4c0.059,0,0.116,0.002,0.174,0.006c0.414-1.186,1.537-2.006,2.826-2.006 c0.349,0,0.689,0.061,1.011,0.18c0.165-2.333,2.115-4.18,4.489-4.18c1.831,0,3.466,1.127,4.153,2.774 c0.68-0.498,1.502-0.774,2.347-0.774c2.206,0,4,1.794,4,4c0,0.048-0.001,0.095-0.004,0.142C38.739,65.332,40,66.911,40,68.742 C40,70.948,38.206,72.742,36,72.742z"/><path fill="#472b29" d="M30.5,71.742c-0.159,0-0.841,0-1,0c-0.276,0-0.5,0.224-0.5,0.5s0.224,0.5,0.5,0.5 c0.159,0,0.841,0,1,0c0.276,0,0.5-0.224,0.5-0.5S30.776,71.742,30.5,71.742z"/><g><path fill="#fff" d="M72.5,24h-10c-0.276,0-0.5-0.224-0.5-0.5s0.224-0.5,0.5-0.5h10c0.276,0,0.5,0.224,0.5,0.5 S72.776,24,72.5,24z M76.5,24h-2c-0.276,0-0.5-0.224-0.5-0.5s0.224-0.5,0.5-0.5h2c0.276,0,0.5,0.224,0.5,0.5S76.776,24,76.5,24z M81.5,26h-10c-0.276,0-0.5-0.224-0.5-0.5s0.224-0.5,0.5-0.5h10c0.276,0,0.5,0.224,0.5,0.5S81.777,26,81.5,26z M69.5,26h-1 c-0.276,0-0.5-0.224-0.5-0.5s0.224-0.5,0.5-0.5h1c0.276,0,0.5,0.224,0.5,0.5S69.776,26,69.5,26z M66.47,26H64.5 c-0.276,0-0.5-0.224-0.5-0.5s0.224-0.5,0.5-0.5h1.97c0.276,0,0.5,0.224,0.5,0.5S66.746,26,66.47,26z M75.5,22h-5 c-0.276,0-0.5-0.224-0.5-0.5s0.224-0.5,0.5-0.5h5c0.276,0,0.5,0.224,0.5,0.5S75.777,22,75.5,22z M72.5,28h-2 c-0.276,0-0.5-0.224-0.5-0.5s0.224-0.5,0.5-0.5h2c0.276,0,0.5,0.224,0.5,0.5S72.776,28,72.5,28z"/></g><g><path fill="#a3754f" d="M39.21,69.527c-0.21,0-0.417-0.043-0.611-0.129c-0.077-0.034-0.148-0.081-0.208-0.14 c-0.139-0.135-0.287-0.261-0.444-0.375c-1.295-0.714-2.774-1.433-4.328-2.091c-0.134-0.055-0.282-0.113-0.424-0.16 c-0.426-0.171-0.713-0.506-0.808-0.911c-0.013-0.056-0.019-0.113-0.018-0.17c0.01-0.678,0.307-1.328,0.813-1.781 c0.845-0.619,1.703-1.099,2.606-1.471c0.809-0.323,1.566-0.75,2.259-1.27c0.121-0.091,0.269-0.14,0.42-0.14c0,0,0.337,0,0.337,0 c0.373,0,0.724,0.12,1.006,0.337c0.307,0.236,0.489,0.595,0.499,0.983c0.003,0.33-0.127,0.637-0.357,0.855 c-0.721,0.637-1.528,1.096-2.419,1.383c-0.395,0.126-0.761,0.317-1.084,0.564c0.469,0.244,0.948,0.47,1.434,0.677l2.409,1.059 c0.422,0.167,0.711,0.595,0.715,1.068c0.044,0.509-0.183,1.004-0.602,1.303c-0.302,0.252-0.735,0.409-1.179,0.409 C39.226,69.527,39.212,69.527,39.21,69.527z"/><path fill="#472b29" d="M38.821,61.59c0.203,0,0.401,0.067,0.563,0.192c0.139,0.107,0.222,0.271,0.226,0.447 c0.001,0.125-0.049,0.244-0.139,0.331c-0.625,0.552-1.358,0.968-2.151,1.224c-0.799,0.254-1.505,0.738-2.03,1.392 c0.748,0.434,1.523,0.822,2.32,1.16l2.401,1.055c0.186,0.074,0.305,0.258,0.296,0.458c0.034,0.273-0.084,0.542-0.307,0.702 c-0.217,0.18-0.491,0.278-0.773,0.278c-0.003,0-0.007,0-0.01,0c-0.001,0-0.003,0-0.004,0c-0.114,0-0.228-0.024-0.332-0.07 c-0.163-0.159-0.338-0.307-0.522-0.441c-1.392-0.773-2.88-1.496-4.465-2.169c-0.156-0.064-0.319-0.128-0.476-0.18 c-0.175-0.071-0.305-0.222-0.348-0.406c0.008-0.486,0.218-0.946,0.58-1.27c0.746-0.543,1.554-0.994,2.407-1.345 c0.86-0.344,1.671-0.801,2.412-1.357h0.336C38.81,61.59,38.816,61.59,38.821,61.59 M38.821,60.19c-0.009,0-0.035,0-0.044,0 l-0.31,0c-0.303,0-0.598,0.098-0.841,0.28c-0.642,0.482-1.346,0.878-2.092,1.177c-0.967,0.398-1.875,0.906-2.71,1.513 c-0.038,0.028-0.075,0.057-0.11,0.089c-0.652,0.583-1.033,1.418-1.047,2.292c-0.002,0.114,0.01,0.229,0.037,0.34 c0.147,0.627,0.591,1.145,1.188,1.386c0.027,0.011,0.053,0.021,0.081,0.03c0.128,0.043,0.261,0.096,0.39,0.148 c1.483,0.63,2.913,1.322,4.233,2.052c0.107,0.081,0.209,0.17,0.304,0.263c0.121,0.118,0.262,0.213,0.417,0.281 c0.284,0.124,0.584,0.187,0.894,0.187c0.605,0,1.182-0.202,1.644-0.571c0.585-0.44,0.904-1.146,0.85-1.874 c-0.017-0.735-0.465-1.396-1.148-1.682l-2.385-1.049c-0.036-0.015-0.073-0.031-0.109-0.047c0.861-0.32,1.643-0.788,2.333-1.397 c0.015-0.013,0.029-0.026,0.043-0.039c0.367-0.352,0.575-0.846,0.57-1.354c-0.014-0.62-0.295-1.176-0.772-1.543 C39.834,60.361,39.331,60.19,38.821,60.19L38.821,60.19z"/><path fill="#a3754f" d="M61.689,69.063c-0.333,0-0.649-0.127-0.889-0.359c-0.477-0.415-0.53-1.181-0.092-1.684 c0.292-0.376,0.692-0.69,1.145-0.892c0.319-0.178,0.673-0.417,1.002-0.686l0.521-0.403c0.327-0.255,0.56-0.432,0.733-0.532 c0.018-0.009,0.035-0.018,0.052-0.027c-0.144-0.111-0.306-0.198-0.48-0.256c-0.491-0.137-1.024-0.295-1.557-0.459 c-0.622-0.154-1.217-0.501-1.683-0.994c-0.068-0.073-0.121-0.159-0.153-0.254c-0.052-0.152-0.061-0.316-0.026-0.473 c0.046-0.3,0.191-0.573,0.413-0.779c0.221-0.246,0.531-0.402,0.861-0.432c0.044-0.006,0.118-0.011,0.191-0.011 s0.147,0.005,0.22,0.015c0.346,0.017,0.733,0.112,1.097,0.277l0.794,0.345c1.16,0.353,2.318,1.005,3.281,1.862 c0.306,0.22,0.504,0.569,0.532,0.947c0.002,0.588-0.32,1.056-0.954,1.444c-0.701,0.47-1.412,1-2.088,1.56 c-0.707,0.578-1.454,1.116-2.224,1.602c-0.237,0.128-0.454,0.184-0.671,0.189C61.709,69.063,61.695,69.063,61.689,69.063z"/><path fill="#472b29" d="M61.728,61.523c0.043,0,0.085,0.003,0.128,0.009c0.311,0.017,0.615,0.092,0.899,0.22l0.808,0.351 c-0.016-0.005-0.032-0.01-0.048-0.015l0.081,0.029l-0.033-0.014c1.158,0.356,2.224,0.961,3.124,1.771 c0.154,0.098,0.253,0.264,0.267,0.447c0,0.273-0.203,0.539-0.62,0.794c-0.75,0.502-1.474,1.042-2.169,1.618 c-0.685,0.56-1.403,1.077-2.151,1.548c-0.097,0.051-0.204,0.079-0.313,0.081c-0.003,0-0.006,0-0.009,0 c-0.15,0-0.294-0.058-0.402-0.162c-0.213-0.185-0.235-0.507-0.05-0.72c0.005-0.006,0.01-0.011,0.015-0.017 c0.234-0.301,0.539-0.54,0.887-0.696c0.41-0.225,0.798-0.487,1.16-0.783c0.58-0.441,0.928-0.736,1.16-0.87 c0.458-0.232,0.696-0.394,0.696-0.493c0.005-0.021,0.005-0.043,0-0.064c-0.286-0.471-0.73-0.824-1.253-0.997 c-0.516-0.145-1.044-0.302-1.571-0.464c-0.528-0.131-1.007-0.411-1.38-0.806c-0.012-0.036-0.012-0.074,0-0.11 c0.019-0.165,0.099-0.316,0.226-0.423c0.105-0.13,0.257-0.211,0.423-0.226C61.642,61.526,61.685,61.523,61.728,61.523 M61.728,60.123c-0.096,0-0.191,0.006-0.287,0.017c-0.483,0.052-0.935,0.28-1.264,0.635c-0.321,0.307-0.531,0.708-0.603,1.147 c-0.054,0.269-0.038,0.552,0.049,0.813c0.065,0.193,0.171,0.37,0.311,0.518c0.549,0.58,1.246,0.992,2.018,1.192 c0.253,0.078,0.505,0.154,0.756,0.228c-0.08,0.062-0.165,0.128-0.256,0.197c-0.32,0.26-0.626,0.469-0.945,0.647 c-0.515,0.241-0.971,0.6-1.327,1.044c-0.683,0.789-0.608,1.976,0.16,2.67c0.368,0.343,0.845,0.531,1.349,0.531 c0.365-0.007,0.689-0.091,0.977-0.244c0.031-0.017,0.062-0.034,0.092-0.053c0.794-0.5,1.564-1.055,2.29-1.648 c0.656-0.544,1.341-1.055,2.041-1.524c1.043-0.648,1.263-1.429,1.263-1.972c0-0.034-0.001-0.069-0.004-0.103 c-0.042-0.571-0.334-1.1-0.79-1.441c-1.011-0.895-2.221-1.58-3.508-1.988l-0.739-0.321c-0.409-0.185-0.862-0.3-1.331-0.331 C61.897,60.128,61.812,60.123,61.728,60.123L61.728,60.123z"/><path fill="#a3754f" d="M48.286,62.51c-0.229,0-0.452-0.112-0.586-0.316c-0.105-0.16-0.232-0.302-0.378-0.421 c-0.005,0.001-0.156,0.044-0.161,0.045l-1.606,0.58c-0.247,0.073-0.458,0.104-0.668,0.105c-0.003,0-0.006,0-0.01,0 c-0.465,0-0.85-0.112-1.184-0.322c-0.442-0.349-0.758-0.712-1.006-1.126c-0.191-0.319-0.099-0.732,0.209-0.94l0.481-0.325 c0.117-0.079,0.253-0.12,0.392-0.12c0.053,0,0.107,0.006,0.16,0.019c0.189,0.044,0.352,0.166,0.449,0.335 c0.099,0.174,0.227,0.329,0.378,0.461c-0.009-0.008-0.007-0.01,0.001-0.01c0.011,0,0.032,0.004,0.054,0.004 c0.132-0.002,0.167-0.007,0.201-0.018l1.725-0.575c0.116-0.052,0.295-0.088,0.479-0.088c0.455,0,0.856,0.126,1.197,0.364 c0.381,0.299,0.679,0.628,0.919,1.001c0.073,0.113,0.112,0.245,0.112,0.379c0,0.254-0.138,0.5-0.36,0.624l-0.458,0.255 C48.519,62.481,48.402,62.51,48.286,62.51z"/><path fill="#472b29" d="M43.768,60.372c0.138,0.243,0.317,0.46,0.528,0.644c0.151,0.107,0.331,0.165,0.515,0.165 c0.022,0,0.043-0.001,0.065-0.002c0.011,0,0.022,0.001,0.034,0.001c0.105,0,0.209-0.016,0.309-0.047l1.74-0.58 c0.081-0.035,0.169-0.052,0.257-0.052c0.005,0,0.011,0,0.016,0c0.008,0,0.016,0,0.024,0c0.271,0,0.536,0.083,0.759,0.238 c0.286,0.227,0.533,0.499,0.731,0.806l0,0.012l-0.458,0.255c-0.143-0.219-0.319-0.414-0.522-0.58 c-0.133-0.088-0.288-0.135-0.447-0.135c-0.017,0-0.035,0.001-0.052,0.002c0,0,0,0-0.001,0c-0.117,0-0.233,0.022-0.341,0.064 l-1.606,0.58c-0.141,0.041-0.288,0.062-0.435,0.064c-0.022,0.001-0.044,0.002-0.066,0.002c-0.265,0-0.526-0.075-0.752-0.216 c-0.31-0.249-0.573-0.552-0.777-0.893L43.768,60.372 M43.768,58.972c-0.277,0-0.55,0.082-0.783,0.239l-0.481,0.325 c-0.616,0.416-0.8,1.24-0.419,1.878c0.29,0.486,0.661,0.912,1.102,1.267c0.043,0.034,0.087,0.066,0.133,0.095 c0.449,0.281,0.966,0.43,1.495,0.43c0.035,0,0.07-0.001,0.105-0.002c0.266-0.005,0.531-0.045,0.787-0.119 c0.029-0.008,0.057-0.018,0.085-0.028l1.324-0.478c0.268,0.407,0.714,0.631,1.171,0.631c0.231,0,0.465-0.057,0.68-0.177 l0.458-0.255c0.446-0.248,0.721-0.72,0.719-1.23c-0.001-0.266-0.079-0.538-0.222-0.761c-0.281-0.437-0.631-0.823-1.039-1.146 c-0.023-0.018-0.046-0.035-0.069-0.052c-0.46-0.32-0.998-0.489-1.558-0.489c-0.004,0-0.013,0-0.023,0c-0.007,0-0.013,0-0.018,0 c-0.254,0-0.502,0.046-0.738,0.137l-1.464,0.488c-0.01-0.015-0.019-0.03-0.028-0.046c-0.193-0.338-0.518-0.581-0.898-0.67 C43.981,58.984,43.874,58.972,43.768,58.972L43.768,58.972z"/><path fill="#a3754f" d="M45.314,76.708c-1.713,0-3.212-0.61-4.113-1.675c-0.588-0.694-1.22-1.937-0.889-3.915 c0.042-0.249,0.213-0.456,0.45-0.542c0.078-0.029,0.159-0.043,0.24-0.043c0.164,0,0.325,0.058,0.453,0.167 c0.788,0.669,1.482,0.994,2.123,0.994c0.646,0,1.251-0.326,1.893-0.672c0.689-0.371,1.47-0.792,2.401-0.841 c0.091-0.005,0.182-0.007,0.271-0.007c1.323,0,2.337,0.587,2.712,1.57c0.418,1.098-0.03,2.411-1.169,3.429 C48.616,76.133,46.981,76.708,45.314,76.708L45.314,76.708z"/><path fill="#472b29" d="M48.143,70.873c2.422,0,2.853,2.191,1.076,3.776c-0.973,0.875-2.459,1.359-3.905,1.359 c-2.492,0-4.87-1.435-4.312-4.774c1.015,0.862,1.844,1.16,2.576,1.16c1.602,0,2.738-1.431,4.331-1.514 C47.989,70.875,48.067,70.873,48.143,70.873 M48.143,69.473c-0.101,0-0.205,0.003-0.312,0.009 c-1.085,0.057-1.939,0.518-2.693,0.924c-0.585,0.316-1.091,0.588-1.56,0.588c-0.468,0-1.014-0.271-1.67-0.828 c-0.257-0.218-0.58-0.333-0.907-0.333c-0.161,0-0.324,0.028-0.481,0.085c-0.473,0.173-0.817,0.587-0.9,1.084 c-0.375,2.242,0.362,3.675,1.045,4.483c1.035,1.222,2.728,1.922,4.647,1.922c1.836,0,3.646-0.642,4.842-1.718 c1.358-1.212,1.878-2.821,1.353-4.196C51.026,70.229,49.768,69.473,48.143,69.473L48.143,69.473z"/><path fill="#a3754f" d="M46.276,67.869c-0.673,0-1.315-0.322-1.718-0.861c-0.388-0.473-0.642-1.074-0.714-1.714 c-0.158-0.706,0.079-1.501,0.646-2.057c0.478-0.436,1.072-0.666,1.693-0.666h0.127c0.505,0,0.995,0.147,1.416,0.424 c0.035,0.023,0.067,0.049,0.097,0.078c0.58,0.552,0.872,1.356,0.781,2.152c0.005,1.063-0.371,1.868-1.113,2.313 c-0.376,0.213-0.785,0.324-1.2,0.332C46.287,67.869,46.28,67.869,46.276,67.869z"/><path fill="#472b29" d="M46.182,63.27c0.023,0,0.045,0,0.068,0.001c0.02-0.001,0.04-0.001,0.061-0.001 c0.365,0,0.723,0.107,1.03,0.308c0.425,0.404,0.635,0.984,0.568,1.566c0,0.887-0.255,1.479-0.777,1.792 c-0.26,0.147-0.553,0.227-0.852,0.232c-0.001,0-0.002,0-0.003,0c-0.455,0-0.884-0.215-1.157-0.58 c-0.322-0.393-0.523-0.87-0.58-1.374c-0.117-0.536,0.049-1.094,0.441-1.479C45.309,63.436,45.738,63.27,46.182,63.27 M46.227,65.678c0.32,0,0.58-0.26,0.58-0.58s-0.26-0.58-0.58-0.58s-0.58,0.26-0.58,0.58S45.906,65.678,46.227,65.678 M46.182,61.87L46.182,61.87c-0.795,0-1.557,0.295-2.145,0.83c-0.013,0.012-0.026,0.024-0.038,0.036 c-0.722,0.708-1.034,1.714-0.843,2.703c0.096,0.739,0.393,1.434,0.862,2.014c0.535,0.699,1.377,1.115,2.258,1.115 c0.557-0.009,1.082-0.152,1.544-0.413c0.687-0.411,1.466-1.236,1.488-2.937c0.086-0.985-0.285-1.971-1.003-2.654 c-0.06-0.057-0.126-0.109-0.195-0.155c-0.536-0.352-1.158-0.539-1.799-0.539l-0.061,0.001L46.182,61.87L46.182,61.87L46.182,61.87 z"/><path fill="#a3754f" d="M51.224,71.128c-0.076,0-0.15-0.013-0.221-0.037c-0.225-0.024-0.444-0.082-0.653-0.17 c-0.296-0.144-0.53-0.315-0.731-0.525c-0.191-0.187-0.369-0.417-0.511-0.669c-0.135-0.225-0.257-0.482-0.351-0.747 c-0.026-0.076-0.041-0.155-0.041-0.235c0-0.077,0.013-0.2,0.038-0.273c0.035-0.101,0.121-0.239,0.196-0.314 c0.132-0.133,0.311-0.206,0.495-0.206c0.039,0,0.079,0.003,0.118,0.01c0.224,0.038,0.415,0.183,0.513,0.388 c0.062,0.129,0.136,0.252,0.221,0.367c0.063,0.083,0.147,0.167,0.24,0.241c0.058,0.043,0.137,0.085,0.222,0.112 c0.103,0.031,0.219,0.049,0.335,0.049c0.199,0,0.344-0.024,0.483-0.072c0.119-0.042,0.231-0.11,0.327-0.201 c0.206-0.166,0.341-0.313,0.45-0.481c0.129-0.2,0.351-0.319,0.587-0.319c0.021,0,0.041,0.001,0.062,0.003 c0.242,0.021,0.454,0.167,0.563,0.381c0.068,0.11,0.105,0.238,0.105,0.368c0,0.062-0.008,0.176-0.024,0.235 c-0.036,0.133-0.083,0.262-0.143,0.386c-0.061,0.136-0.14,0.281-0.229,0.42c-0.084,0.141-0.195,0.292-0.319,0.433 c-0.13,0.145-0.268,0.276-0.417,0.395c-0.204,0.148-0.393,0.25-0.591,0.327c-0.228,0.089-0.47,0.135-0.718,0.135 C51.229,71.128,51.224,71.128,51.224,71.128z"/><path fill="#472b29" d="M49.445,68.653c0.081,0.169,0.178,0.331,0.29,0.481c0.107,0.138,0.229,0.262,0.365,0.371 c0.135,0.102,0.286,0.181,0.447,0.232c0.177,0.054,0.362,0.081,0.547,0.081c0.011,0,0.022,0,0.033,0c0.008,0,0.015,0,0.023,0 c0.223,0,0.445-0.037,0.656-0.11c0.216-0.076,0.413-0.197,0.58-0.354c0.218-0.171,0.406-0.377,0.557-0.609 c0.007,0.019,0.017,0.036,0.029,0.052v0.052c-0.025,0.092-0.058,0.181-0.099,0.267c-0.053,0.119-0.115,0.233-0.186,0.342 c-0.074,0.124-0.159,0.24-0.255,0.348c-0.102,0.113-0.212,0.218-0.331,0.313c-0.125,0.09-0.262,0.164-0.406,0.22 c-0.148,0.057-0.305,0.087-0.463,0.087c-0.002,0-0.005,0-0.007,0l-0.023-0.023c-0.2-0.007-0.396-0.05-0.58-0.128 c-0.186-0.092-0.355-0.215-0.499-0.365c-0.16-0.155-0.297-0.333-0.406-0.528c-0.121-0.202-0.222-0.416-0.302-0.638 c0-0.012,0-0.046,0-0.046C49.422,68.682,49.432,68.666,49.445,68.653 M49.445,67.253c-0.373,0-0.735,0.149-1,0.42 c-0.153,0.156-0.273,0.348-0.347,0.554c-0.054,0.152-0.082,0.311-0.082,0.472c0,0.16,0.028,0.366,0.081,0.516 c0.11,0.309,0.251,0.608,0.42,0.889c0.155,0.277,0.374,0.561,0.63,0.811c0.222,0.233,0.522,0.453,0.856,0.617 c0.024,0.012,0.049,0.023,0.074,0.034c0.261,0.11,0.534,0.183,0.813,0.217c0.108,0.028,0.219,0.044,0.329,0.044 c0.347,0,0.673-0.061,0.984-0.182c0.254-0.099,0.494-0.23,0.715-0.388c0.021-0.015,0.041-0.03,0.061-0.046 c0.176-0.142,0.342-0.299,0.493-0.467c0.16-0.18,0.297-0.367,0.415-0.565c0.084-0.128,0.181-0.307,0.263-0.491 c0.063-0.13,0.126-0.301,0.172-0.474c0.032-0.118,0.048-0.241,0.048-0.363v-0.052c0-0.249-0.066-0.492-0.191-0.706 c-0.218-0.413-0.631-0.694-1.102-0.74c-0.046-0.004-0.091-0.007-0.136-0.007c-0.47,0-0.913,0.237-1.173,0.636 c-0.068,0.104-0.151,0.195-0.249,0.272c-0.033,0.026-0.064,0.053-0.095,0.082c-0.025,0.023-0.054,0.041-0.086,0.052 c-0.055,0.019-0.122,0.03-0.19,0.03l-0.055,0c-0.047,0-0.094-0.007-0.139-0.021c-0.029-0.025-0.074-0.071-0.113-0.122 c-0.04-0.054-0.091-0.139-0.133-0.228c-0.197-0.412-0.583-0.702-1.034-0.777C49.598,67.259,49.521,67.253,49.445,67.253 L49.445,67.253z"/><path fill="#eeecd9" d="M67.551,35.333c-0.038-0.056-0.076-0.112-0.114-0.167c-0.075-0.107-0.15-0.211-0.225-0.315 c-0.062-0.085-0.124-0.169-0.186-0.251c-0.059-0.078-0.118-0.155-0.178-0.231c-0.083-0.107-0.167-0.211-0.251-0.313 c-0.041-0.05-0.083-0.101-0.124-0.15c-0.114-0.135-0.229-0.267-0.343-0.394c-0.013-0.014-0.026-0.029-0.039-0.044 c-3.04-3.351-6.356-4.046-8.364-4.486l-0.951-0.215c-3.479-0.667-6.402-1.003-9.365-0.58c-1.167,0.254-2.294,0.664-3.352,1.218 c-1.456,0.661-2.969,1.345-4.43,1.45c-1.53,0.395-2.857,1.346-3.723,2.668l-0.162,0.232c-0.777,1.624-0.981,3.464-0.58,5.219 c0.319,1.044,0.713,2.064,1.084,3.044c0.852,2,1.469,4.092,1.838,6.234c0.384,0.761,0.684,1.563,0.893,2.389 c0.493,1.717,1.055,3.648,2.581,5.15h0.041c0.013-0.006,0.025-0.01,0.037-0.016c0.003,0.003,0.006,0.007,0.009,0.01 c0.051-0.024,0.102-0.045,0.153-0.069l0.05,2.035v0.046h0.035c2.015-1.154,4.245-1.884,6.553-2.146 c3.671-0.331,7.429,0.789,11.099,3.352h0.035v-0.058c0.106-0.591,0.162-1.187,0.188-1.785l0.298,0.123 c0.024-0.011,0.047-0.028,0.071-0.042c0.008,0.003,0.015,0.006,0.023,0.009c0.905-0.394,1.363-3.433,1.972-6.263 c2.192-5.016,7.092-8.699,6.796-13.338C68.48,36.79,68.021,36.023,67.551,35.333z"/><polygon fill="#eeecd9" points="60.063,57.287 60.056,57.284 60.052,57.287"/><path fill="#a3754f" d="M55.285,67.834c-0.673,0-1.316-0.322-1.72-0.86c-0.393-0.471-0.647-1.075-0.716-1.72 c-0.159-0.697,0.075-1.492,0.639-2.05c0.479-0.44,1.076-0.673,1.701-0.673l0.114,0c0.509,0,1.002,0.149,1.426,0.431 c0.566,0.396,0.853,1.087,0.892,2.123c0.115,0.891-0.295,1.83-1.076,2.388c-0.424,0.245-0.835,0.356-1.25,0.362 C55.292,67.834,55.288,67.834,55.285,67.834z"/><path fill="#472b29" d="M55.188,63.23c0.021,0,0.041,0,0.062,0.001c0.018,0,0.035-0.001,0.052-0.001 c0.369,0,0.73,0.109,1.038,0.314c0.365,0.255,0.551,0.783,0.58,1.566c0.088,0.696-0.212,1.384-0.783,1.792 c-0.26,0.148-0.553,0.228-0.852,0.232c-0.456,0-0.886-0.215-1.16-0.58c-0.325-0.391-0.526-0.869-0.58-1.374 c-0.119-0.535,0.046-1.093,0.435-1.479C54.31,63.397,54.741,63.23,55.188,63.23 M55.065,65.742c0.32,0,0.58-0.26,0.58-0.58 c0-0.32-0.26-0.58-0.58-0.58c-0.32,0-0.58,0.26-0.58,0.58C54.485,65.482,54.744,65.742,55.065,65.742 M55.188,61.83 c-0.8,0-1.566,0.298-2.155,0.84c-0.013,0.012-0.025,0.024-0.038,0.036c-0.716,0.709-1.024,1.711-0.834,2.696 c0.093,0.744,0.391,1.441,0.866,2.022c0.536,0.696,1.377,1.11,2.257,1.11c0.554-0.008,1.08-0.151,1.544-0.415 c0.042-0.024,0.083-0.05,0.123-0.079c0.972-0.695,1.491-1.855,1.365-3.04c-0.056-1.223-0.451-2.099-1.175-2.604 c-0.565-0.376-1.192-0.566-1.839-0.566l-0.052,0.001L55.188,61.83L55.188,61.83z"/><path fill="none" stroke="#472b29" stroke-linecap="round" stroke-linejoin="round" stroke-miterlimit="10" stroke-width="1.4" d="M67.551,35.333c-0.038-0.056-0.076-0.112-0.114-0.167c-0.075-0.107-0.15-0.211-0.225-0.315c-0.062-0.085-0.124-0.169-0.186-0.251 c-0.059-0.078-0.118-0.155-0.178-0.231c-0.083-0.107-0.167-0.211-0.251-0.313c-0.041-0.05-0.083-0.101-0.124-0.15 c-0.114-0.135-0.229-0.267-0.343-0.394c-0.013-0.014-0.026-0.029-0.039-0.044c-3.04-3.351-6.356-4.046-8.364-4.486l-0.951-0.215 c-3.479-0.667-6.402-1.003-9.365-0.58c-1.167,0.254-2.294,0.664-3.352,1.218c-1.456,0.661-2.969,1.345-4.43,1.45 c-1.53,0.395-2.857,1.346-3.723,2.668l-0.162,0.232c-0.777,1.624-0.981,3.464-0.58,5.219c0.319,1.044,0.713,2.064,1.084,3.044 c0.852,2,1.469,4.092,1.838,6.234c0.384,0.761,0.684,1.563,0.893,2.389c0.493,1.717,1.055,3.648,2.581,5.15h0.041 c0.013-0.006,0.025-0.01,0.037-0.016c0.003,0.003,0.006,0.007,0.009,0.01c0.051-0.024,0.102-0.045,0.153-0.069l0.05,2.035v0.046 h0.035c2.015-1.154,4.245-1.884,6.553-2.146c3.671-0.331,7.429,0.789,11.099,3.352h0.035v-0.058 c0.106-0.591,0.162-1.187,0.188-1.785l0.298,0.123c0.024-0.011,0.047-0.028,0.071-0.042c0.008,0.003,0.015,0.006,0.023,0.009 c0.905-0.394,1.363-3.433,1.972-6.263c2.192-5.016,7.092-8.699,6.796-13.338C68.48,36.79,68.021,36.023,67.551,35.333z"/><polygon fill="none" stroke="#472b29" stroke-linecap="round" stroke-linejoin="round" stroke-miterlimit="10" stroke-width="1.4" points="60.063,57.287 60.056,57.284 60.052,57.287"/><path fill="none" stroke="#472b29" stroke-linecap="round" stroke-linejoin="round" stroke-miterlimit="10" stroke-width=".25" d="M38.748,34.454c-0.009-0.053-0.018-0.106-0.028-0.156" clip-rule="evenodd"/><path fill="none" stroke="#472b29" stroke-linecap="round" stroke-linejoin="round" stroke-miterlimit="10" stroke-width=".25" d="M39.523,43.984c0.044-2.743-0.313-6.502-0.661-8.818" clip-rule="evenodd"/><path fill="none" stroke="#472b29" stroke-linecap="round" stroke-linejoin="round" stroke-miterlimit="10" stroke-width=".25" d="M38.597,33.681c-0.058-0.254-0.494-0.661-0.779-0.691c-0.259,0.039-0.507,0.135-0.723,0.285c-0.109,0.136-0.212,0.276-0.31,0.42" clip-rule="evenodd"/><path fill="none" stroke="#472b29" stroke-linecap="round" stroke-linejoin="round" stroke-miterlimit="10" stroke-width=".25" d="M48.346,36.915c-0.44,2.993-0.996,6.264-1.18,8.843c-0.035,0.481-4.28-18.783,1.403-16.759"/><path fill="none" stroke="#472b29" stroke-linecap="round" stroke-linejoin="round" stroke-miterlimit="10" stroke-width=".25" d="M48.493,35.899c-0.023,0.167-0.047,0.335-0.072,0.504"/><path fill="none" stroke="#472b29" stroke-linecap="round" stroke-linejoin="round" stroke-miterlimit="10" stroke-width=".25" d="M48.581,28.999c0.548,0.915,0.39,3.286,0.015,6.135"/><path fill="#b7b4a5" stroke="#472b29" stroke-linecap="round" stroke-linejoin="round" stroke-miterlimit="10" stroke-width=".25" d="M48.077,50.78c-1.708-4.734-2.744-9.685-3.079-14.706c-0.13-1.661,0.003-3.333,0.394-4.952c0.377-1.287,1.038-2.134,2.064-2.285 c0.375-0.048,0.755-0.021,1.119,0.081v0.052c-0.369-0.068-0.749-0.056-1.113,0.035c-0.858,0.197-0.754,0.731-1.316,1.943 c-0.439,1.558-0.581,3.185-0.418,4.796c0.731,4.778,1.63,11.296,2.407,15.002h-0.041"/><path fill="#b7b4a5" stroke="#472b29" stroke-linecap="round" stroke-linejoin="round" stroke-miterlimit="10" stroke-width=".25" d="M52.078,50.473c-0.058-0.389-0.11-0.783-0.168-1.16c-0.893-6.472-1.989-14.358,1.85-20.024h0.046 c-1.572,4.193-1.786,12.178-1.972,14.753c-0.081,1.113,0.046,3.479,0.133,5.219c0.052,0.4,0.116,0.794,0.168,1.189h-0.058"/><path fill="#b7b4a5" stroke="#472b29" stroke-linecap="round" stroke-linejoin="round" stroke-miterlimit="10" stroke-width=".25" d="M56.242,51.302c0.362-2.814,0.835-6.107,1.165-9.159c0.109-1.005,0.26-2.007,0.523-2.983c0.871-3.231,2.18-5.395,2.667-9.093 v-0.052c-1.956,3.273-3.256,6.895-3.827,10.664c-0.529,3.515-0.691,7.075-0.481,10.624H56.23"/><path fill="#b7b4a5" stroke="#472b29" stroke-linecap="round" stroke-linejoin="round" stroke-miterlimit="10" stroke-width=".25" d="M66.303,35.135c-1.74,5.358-3.793,10.595-5.88,15.895C60.481,44.013,64.239,35.57,66.303,35.135"/><path fill="#b7b4a5" stroke="#472b29" stroke-linecap="round" stroke-linejoin="round" stroke-miterlimit="10" stroke-width=".25" d="M40.265,31.551c-0.16,0.017-0.313,0.073-0.447,0.162c-0.118,0.078-0.198,0.202-0.22,0.342c0,0.209-0.162,0.244,0,0.632l0,0 c1.299,1.74,2.32,4.68,2.563,7.782c0.348,3.938-0.11,8.298,2.499,11.389l-0.041,0.035c-2.621-3.108-3.01-7.475-3.352-11.418 c-0.278-3.097-0.528-5.938-1.815-7.684l0,0c-0.219-0.244-0.33-0.566-0.307-0.893c0.026-0.152,0.111-0.288,0.238-0.377 c0.142-0.1,0.308-0.16,0.481-0.174c0.554-0.044,1.733,0.388,1.733,0.388"/><g><path fill="#a3754f" d="M56.939,76.838c-1.667,0-3.303-0.575-4.374-1.539c-1.138-1.016-1.586-2.329-1.167-3.426 c0.375-0.983,1.389-1.57,2.712-1.57c0.088,0,0.18,0.002,0.273,0.008c0.93,0.048,1.71,0.47,2.399,0.841 c0.641,0.346,1.246,0.672,1.893,0.672c0.641,0,1.335-0.325,2.123-0.994c0.128-0.109,0.29-0.167,0.453-0.167 c0.081,0,0.162,0.014,0.24,0.043c0.237,0.086,0.409,0.293,0.45,0.542c0.331,1.978-0.301,3.221-0.889,3.915 C60.15,76.228,58.651,76.838,56.939,76.838z"/><path fill="#472b29" d="M54.109,71.004c0.076,0,0.154,0.002,0.234,0.007c1.592,0.084,2.728,1.514,4.331,1.514 c0.732,0,1.562-0.299,2.576-1.16c0.558,3.339-1.819,4.774-4.312,4.774c-1.446,0-2.932-0.484-3.905-1.359 C51.257,73.194,51.687,71.003,54.109,71.004 M54.11,69.604C54.11,69.604,54.11,69.604,54.11,69.604 c-1.625,0-2.884,0.755-3.366,2.021c-0.524,1.375-0.004,2.984,1.358,4.2c1.192,1.072,3.002,1.714,4.838,1.714 c1.919,0,3.613-0.701,4.647-1.922c0.684-0.807,1.42-2.24,1.045-4.483c-0.083-0.497-0.427-0.911-0.9-1.084 c-0.156-0.057-0.319-0.085-0.481-0.085c-0.327,0-0.649,0.115-0.907,0.333c-0.656,0.557-1.202,0.827-1.67,0.827 c-0.47,0-0.975-0.273-1.56-0.588c-0.754-0.406-1.608-0.867-2.697-0.924C54.315,69.606,54.211,69.604,54.11,69.604L54.11,69.604z"/></g><path fill="#d82745" stroke="#472b29" stroke-miterlimit="10" d="M59.652,54.764c-0.104-1.363-2.32-2.865-5.393-3.648 c-2.216-0.589-4.536-0.662-6.785-0.215c-2.337,0.429-4.396,1.795-5.7,3.781l0.075,3.068v0.046h0.035 c2.015-1.154,4.245-1.885,6.553-2.146c3.671-0.331,7.429,0.789,11.099,3.352h0.035v-0.058 C59.817,57.565,59.844,56.154,59.652,54.764z"/><path fill="none" stroke="#472b29" stroke-linecap="round" stroke-linejoin="round" stroke-miterlimit="10" stroke-width=".25" d="M42.447,35.642c-0.064-1.576-0.176-2.816-0.245-3.117c-0.122-0.528-0.586-1.102-1.937-0.974c-0.16,0.017-0.313,0.073-0.446,0.162 c-0.118,0.078-0.198,0.202-0.22,0.342c0,0.209-0.162,0.244,0,0.632c1.299,1.74,2.32,4.68,2.563,7.782 c0.046,0.519,0.077,1.045,0.104,1.575c0.209-1.456,0.252-3.355,0.22-5.079" clip-rule="evenodd"/><path fill="#b7b4a5" stroke="#472b29" stroke-linecap="round" stroke-linejoin="round" stroke-miterlimit="10" stroke-width=".25" d="M42.65,54.07L42.65,54.07c-2.32-2.737-3.305-7.452-4.117-11.424c-0.644-3.155-1.195-5.845-2.256-6.692l0,0 c-0.127-0.171-0.21-0.37-0.244-0.58c-0.037-0.402,0.045-0.805,0.238-1.16c0.183-0.395,0.464-0.737,0.818-0.992 c0.223-0.154,0.48-0.201,0.748-0.238l0,0c-0.267,0.037-0.521,0.136-0.742,0.29c-0.234,0.293-0.444,0.606-0.626,0.934 c-0.522,1.044,0.58,0.992,0.992,1.56c1.073,0.864,1.16,3.7,1.809,6.866c0.812,3.967,1.079,8.67,3.404,11.395l0,0l0,0l-0.035,0.041"/></g><g><path fill="#fdfcef" d="M80.001,53.984v0.5h3v-0.5c0,0,4.242,0,5.5,0c2.485,0,4.5-2.015,4.5-4.5 c0-2.333-1.782-4.229-4.055-4.455c0.022-0.181,0.055-0.358,0.055-0.545c0-2.485-2.015-4.5-4.5-4.5 c-1.438,0-2.703,0.686-3.527,1.736c-0.14-2.636-2.302-4.736-4.973-4.736c-2.761,0-5,2.239-5,5c0,0.446,0.077,0.87,0.187,1.282 c-0.642-0.777-1.601-1.282-2.687-1.282c-1.781,0-3.234,1.335-3.455,3.055c-0.181-0.022-0.358-0.055-0.545-0.055 c-2.485,0-4.5,2.015-4.5,4.5s2.015,4.5,4.5,4.5c2.485,0,9.5,0,9.5,0H80.001z"/><path fill="#472b29" d="M76.001,36.484c-3.033,0-5.5,2.467-5.5,5.5c0,0.016,0,0.031,0,0.047 c-0.602-0.355-1.29-0.547-2-0.547c-1.831,0-3.411,1.261-3.858,3.005c-0.047-0.003-0.094-0.005-0.142-0.005c-2.757,0-5,2.243-5,5 s2.243,5,5,5h15.5c0.276,0,0.5-0.224,0.5-0.5s-0.224-0.5-0.5-0.5h-15.5c-2.206,0-4-1.794-4-4s1.794-4,4-4 c0.117,0,0.23,0.017,0.343,0.032l0.141,0.019c0.021,0.003,0.041,0.004,0.062,0.004c0.246,0,0.462-0.185,0.495-0.437 c0.191-1.493,1.463-2.618,2.959-2.618c0.885,0,1.723,0.401,2.301,1.1c0.098,0.118,0.241,0.182,0.386,0.182 c0.078,0,0.156-0.018,0.228-0.056c0.209-0.107,0.314-0.346,0.254-0.573c-0.115-0.435-0.169-0.801-0.169-1.153 c0-2.481,2.019-4.5,4.5-4.5c2.381,0,4.347,1.872,4.474,4.263c0.011,0.208,0.15,0.387,0.349,0.45 c0.05,0.016,0.101,0.024,0.152,0.024c0.15,0,0.296-0.069,0.392-0.192c0.771-0.982,1.912-1.545,3.133-1.545c2.206,0,4,1.794,4,4 c0,0.117-0.017,0.23-0.032,0.343l-0.019,0.141c-0.016,0.134,0.022,0.268,0.106,0.373s0.207,0.172,0.34,0.185 c2.056,0.205,3.605,1.907,3.605,3.958c0,2.206-1.794,4-4,4h-5.5c-0.276,0-0.5,0.224-0.5,0.5s0.224,0.5,0.5,0.5h5.5 c2.757,0,5-2.243,5-5c0-2.397-1.689-4.413-4.003-4.877c0.002-0.041,0.003-0.082,0.003-0.123c0-2.757-2.243-5-5-5 c-1.176,0-2.293,0.416-3.183,1.164C80.72,38.244,78.556,36.484,76.001,36.484L76.001,36.484z"/><path fill="#472b29" d="M74.501,43.484c-1.403,0-2.609,0.999-2.913,2.341c-0.367-0.222-0.786-0.341-1.212-0.341 c-1.202,0-2.198,0.897-2.353,2.068c-0.203-0.046-0.396-0.068-0.584-0.068c-1.529,0-2.811,1.2-2.918,2.732 c-0.01,0.138,0.094,0.258,0.231,0.268c0.006,0,0.012,0,0.018,0c0.13,0,0.24-0.101,0.249-0.232 c0.089-1.271,1.151-2.268,2.419-2.268c0.229,0,0.47,0.042,0.738,0.127c0.022,0.007,0.045,0.01,0.067,0.01 c0.055,0,0.11-0.02,0.156-0.054c0.064-0.046,0.102-0.128,0.102-0.208c0-1.034,0.841-1.875,1.875-1.875 c0.447,0,0.885,0.168,1.231,0.473c0.047,0.041,0.106,0.063,0.165,0.063c0.032,0,0.063-0.006,0.093-0.019 c0.088-0.035,0.148-0.117,0.155-0.212c0.104-1.293,1.193-2.305,2.481-2.305c0.208,0,0.425,0.034,0.682,0.107 c0.023,0.007,0.047,0.01,0.07,0.01c0.109,0,0.207-0.073,0.239-0.182c0.038-0.133-0.039-0.271-0.172-0.309 C75.018,43.524,74.757,43.484,74.501,43.484L74.501,43.484z M88.384,44.984c-1.326,0-2.508,0.897-2.874,2.182 c-0.038,0.133,0.039,0.271,0.172,0.309c0.024,0.006,0.047,0.009,0.069,0.009c0.109,0,0.209-0.072,0.24-0.182 c0.305-1.07,1.289-1.818,2.393-1.818c0.117,0,0.23,0.014,0.342,0.029c0.012,0.002,0.023,0.003,0.035,0.003 c0.121,0,0.229-0.092,0.246-0.217c0.019-0.137-0.077-0.263-0.214-0.281C88.659,45,88.523,44.984,88.384,44.984L88.384,44.984z"/></g></svg>