<?xml version="1.0" encoding="UTF-8" standalone="no"?> <svg id="Capa_1" enable-background="new 0 0 512 512" height="512" viewBox="0 0 512 512" width="512" xmlns="http://www.w3.org/2000/svg"><g><g><g><path d="m400.82 200.53c0 21.84-14.87 40.2-35.03 45.52-1.48 11.4-4.69 22.26-9.36 32.3l-104.623 31.322-96.237-31.322c-4.67-10.04-7.87-20.9-9.35-32.3-10.09-2.66-18.85-8.58-25.09-16.57-6.24-7.98-9.95-18.03-9.95-28.95 0-16.88 13.68-30.56 30.56-30.56h3.55v-31c0-61.14 49.57-110.71 110.71-110.71 30.57 0 58.25 12.39 78.28 32.43 20.04 20.03 32.43 47.71 32.43 78.28v31h3.55c8.44 0 16.08 3.41 21.61 8.95 5.53 5.53 8.95 13.17 8.95 21.61z" fill="#bc7c63"/><path d="m155.57 278.35c-4.67-10.04-7.87-20.9-9.35-32.3-10.1-2.66-18.85-8.58-25.08-16.56-6.24-7.99-9.96-18.04-9.96-28.96 0-16.87 13.67-30.56 30.56-30.56h3.55v-30.99c0-61.15 49.57-110.71 110.71-110.71 8.31 0 16.41.92 24.2 2.65-46.92 10.71-81.92 52.7-81.92 102.88v96.95c0 17.13 4.08 33.3 11.33 47.6z" fill="#aa6a51"/><path d="m366.704 51.578v118.386h-7.419c-13.33 0-24.137-10.806-24.137-24.137v-13.307h-158.297v13.307c0 13.33-10.806 24.137-24.137 24.137h-7.419v-118.386c0-24.344 19.735-44.078 44.078-44.078h133.252c24.345 0 44.079 19.735 44.079 44.078z" fill="#7a6d79"/><path d="m239.633 7.503c-24.339 0-44.076 19.737-44.076 44.076v80.945h-18.706v13.307c0 13.328-10.798 24.137-24.137 24.137h-7.419v-118.39c0-24.339 19.737-44.076 44.086-44.076h50.252z" fill="#685e68"/></g><g><g><path d="m135.718 233.438 120.282 62.713v170.664l-137.125-43.63v-179.534c0-8.648 9.175-14.211 16.843-10.213z" fill="#faf7f7"/><path d="m373.142 235.075-117.142 61.076v170.664l137.125-43.63v-175.993c0-10.26-10.885-16.86-19.983-12.117z" fill="#f5f8f9"/></g><path d="m108.147 263.156 130.729 33.255v208.089l-140.5-35.74c-8.783-2.234-14.931-10.142-14.931-19.205v-167.194c0-12.926 12.175-22.392 24.702-19.205z" fill="#ffd15b"/><path d="m403.853 263.156-130.729 33.254v208.09l140.5-35.74c8.783-2.234 14.931-10.142 14.931-19.205v-167.194c0-12.926-12.175-22.392-24.702-19.205z" fill="#fee97d"/><path d="m238.876 296.41h34.248v208.09h-34.248z" fill="#ffd15b"/></g><g fill="#bc7c63"><path d="m426.659 395.112c13.223 0 23.942-10.719 23.942-23.942v-14.177c0-13.223-10.719-23.942-23.942-23.942-13.223 0-23.942 10.719-23.942 23.942v14.177c0 13.223 10.719 23.942 23.942 23.942z"/><path d="m85.341 395.112c13.223 0 23.942-10.719 23.942-23.942v-14.177c0-13.223-10.719-23.942-23.942-23.942-13.223 0-23.942 10.719-23.942 23.942v14.177c0 13.223 10.719 23.942 23.942 23.942z"/></g></g><g><path d="m205.748 238.989c10.375 0 20.13-4.041 27.466-11.377 2.929-2.929 2.929-7.678 0-10.606-2.929-2.93-7.678-2.929-10.606 0-4.503 4.503-10.491 6.983-16.859 6.983s-12.355-2.48-16.859-6.983c-2.928-2.93-7.677-2.929-10.606 0s-2.929 7.677 0 10.606c7.335 7.337 17.089 11.377 27.464 11.377z"/><path d="m306.254 238.971c9.947 0 19.894-3.786 27.467-11.358 2.929-2.929 2.929-7.678 0-10.606-2.93-2.929-7.678-2.929-10.607 0-9.295 9.295-24.423 9.297-33.718 0-2.93-2.929-7.678-2.929-10.607 0s-2.929 7.678 0 10.606c7.572 7.572 17.519 11.358 27.465 11.358z"/><path d="m369.39 223.871c.09 0 .18-.001.271-.005 4.14-.148 7.376-3.585 7.228-7.725-.001-.071-.043-7.174 5.077-12.294 2.929-2.929 2.929-7.678-.001-10.607-2.928-2.929-7.677-2.928-10.606 0-9.663 9.664-9.511 21.987-9.462 23.361.143 4.049 3.473 7.27 7.493 7.27z"/><path d="m135.114 216.132c-.11 4.109 3.112 7.548 7.229 7.696.091.003.183.005.273.005 4.018 0 7.345-3.184 7.49-7.231.049-1.374.202-13.697-9.462-23.361-2.929-2.929-7.678-2.929-10.606 0-2.929 2.929-2.929 7.678 0 10.606 5.042 5.041 5.078 12.005 5.076 12.285z"/><path d="m309.265 359.537c.612 0 1.234-.076 1.854-.233l87.471-22.251c4.015-1.021 6.441-5.103 5.42-9.118-1.021-4.014-5.108-6.439-9.117-5.419l-87.471 22.251c-4.015 1.021-6.441 5.103-5.42 9.118.863 3.392 3.915 5.652 7.263 5.652z"/><path d="m436.05 326.985v-44.625c0-8.495-3.845-16.355-10.549-21.566-6.703-5.211-15.271-6.998-23.499-4.902l-1.373.349v-9.045c0-4.683-1.501-9.09-4.196-12.681 7.624-9.598 11.887-21.609 11.887-33.995 0-10.154-3.957-19.71-11.156-26.923-6.267-6.244-14.307-10.049-22.964-10.937v-23.69-87.39c0-28.441-23.135-51.58-51.57-51.58h-133.26c-20.776 0-39.429 12.369-47.519 31.51-1.613 3.815.173 8.216 3.988 9.828 3.817 1.612 8.215-.173 9.828-3.988 5.739-13.577 18.968-22.35 33.703-22.35h133.26c20.165 0 36.57 16.41 36.57 36.58v87.39 23.49c-9.134-.049-16.55-7.49-16.55-16.63v-13.31c0-4.142-3.357-7.5-7.5-7.5h-158.3c-4.142 0-7.5 3.358-7.5 7.5v13.31c0 9.14-7.417 16.581-16.55 16.63v-23.49-69.89c0-4.142-3.358-7.5-7.5-7.5s-7.5 3.358-7.5 7.5v69.89 23.692c-19.141 1.979-34.12 18.202-34.12 37.857 0 11.91 3.754 23.166 10.84 32.631-2.023 3.052-3.142 6.674-3.142 10.503v12.589l-1.378-.35c-8.234-2.097-16.798-.31-23.502 4.901s-10.548 13.072-10.548 21.566v44.625c-12.764 4.003-22.051 15.941-22.051 30.008v14.177c0 14.067 9.287 26.005 22.051 30.008v8.491c0 4.142 3.358 7.5 7.5 7.5s7.5-3.358 7.5-7.5v-7.569c14.669-2.654 25.833-15.509 25.833-30.931v-14.177c0-15.422-11.164-28.277-25.833-30.93v-43.701c0-3.831 1.733-7.375 4.754-9.723 3.021-2.349 6.882-3.154 10.597-2.208l125.075 31.812v192.612l-131.152-33.363c-5.46-1.385-9.274-6.295-9.274-11.94v-4.88c0-4.142-3.358-7.5-7.5-7.5s-7.5 3.358-7.5 7.5v4.88c0 12.516 8.465 23.405 20.581 26.479l140.5 35.74c.006.001.01-.004.016-.003.587.147 1.197.234 1.83.234h34.248c.636 0 1.25-.088 1.839-.237.002.002.004.003.005.005l140.496-35.739c12.12-3.075 20.585-13.963 20.585-26.479v-48.371c12.764-4.003 22.051-15.941 22.051-30.009v-14.177c0-14.067-9.287-26.005-22.051-30.008zm-334.267 30.008v14.177c0 9.066-7.375 16.442-16.441 16.442s-16.442-7.376-16.442-16.442v-14.177c0-9.066 7.376-16.441 16.442-16.441s16.441 7.375 16.441 16.441zm39.957-179.533h10.97c17.446 0 31.64-14.189 31.64-31.63v-5.81h143.3v5.81c0 17.441 14.193 31.63 31.64 31.63h10.97c6.145 0 11.939 2.402 16.303 6.749 4.357 4.366 6.758 10.158 6.758 16.311 0 9.688-3.404 18.742-9.659 25.92-4.675-.958-9.584-.311-13.987 1.987l-113.675 59.265-116.811-60.902c-3.81-1.988-8.041-2.603-12.099-1.879-.014-.017-.029-.033-.042-.051-5.475-7-8.368-15.417-8.368-24.34 0-12.715 10.345-23.06 23.06-23.06zm104.64 126.45h19.24v193.09h-19.24zm-120.002-60.256c0-2.046 1.354-3.087 1.935-3.44.581-.352 2.129-1.068 3.939-.124l80.373 41.904-86.247-21.936zm285.393 217.837-131.147 33.361v-192.611l60.205-15.312c4.015-1.021 6.441-5.103 5.42-9.117-1.021-4.015-5.106-6.439-9.117-5.42l-37.757 9.603 77.236-40.267c2.779-1.449 5.154-.346 6.046.195.894.542 2.972 2.14 2.972 5.274v12.858l-15.097 3.838c-4.015 1.02-6.441 5.102-5.421 9.116 1.021 4.015 5.104 6.438 9.116 5.421l31.473-8.001c3.71-.943 7.574-.141 10.596 2.208 3.021 2.349 4.754 5.893 4.754 9.723v43.703c-11.297 2.044-20.508 10.138-24.148 20.798-.662-.014-1.336.052-2.009.223l-87.471 22.251c-4.015 1.021-6.441 5.103-5.42 9.118.863 3.394 3.915 5.653 7.263 5.653.612 0 1.234-.076 1.854-.233l84.098-21.393v8.691c0 15.422 11.164 28.277 25.833 30.931v47.449c0 5.644-3.814 10.554-9.279 11.94zm31.33-90.321c0 9.066-7.376 16.442-16.441 16.442-9.066 0-16.442-7.376-16.442-16.442v-14.177c0-9.066 7.376-16.441 16.442-16.441 9.065 0 16.441 7.375 16.441 16.441z"/></g></g></svg>