<?xml version="1.0" encoding="UTF-8"?>
<!DOCTYPE svg PUBLIC "-//W3C//DTD SVG 1.1//EN" "http://www.w3.org/Graphics/SVG/1.1/DTD/svg11.dtd">
<!-- Creator: CorelDRAW -->
<svg xmlns="http://www.w3.org/2000/svg" xml:space="preserve" width="7.83333in" height="7.83333in" style="shape-rendering:geometricPrecision; text-rendering:geometricPrecision; image-rendering:optimizeQuality; fill-rule:evenodd; clip-rule:evenodd"
viewBox="0 0 7.83333 7.83333"
 xmlns:xlink="http://www.w3.org/1999/xlink">
 <defs>
  <style type="text/css">
   <![CDATA[
    .fil0 {fill:#8680BC}
    .fil7 {fill:#AAB6BE}
    .fil6 {fill:#B4B894}
    .fil1 {fill:#E4EFF7}
    .fil4 {fill:#F0F4C3}
    .fil5 {fill:whitesmoke}
    .fil3 {fill:#413B32;fill-rule:nonzero}
    .fil2 {fill:#AAB6BE;fill-rule:nonzero}
   ]]>
  </style>
 </defs>
 <g id="Layer_x0020_1">
  <metadata id="CorelCorpID_0Corel-Layer"/>
  <circle class="fil0" cx="3.91667" cy="3.91667" r="3.91667"/>
  <g id="_319096320">
   <path id="_319098936" class="fil1" d="M6.31667 1.98687l-4.8 0 0 3.3353 1.93396 0 0.932079 0 1.93396 0 0 -3.3353zm-2.2725 2.53004c-0.220701,-0.220705 -0.357217,-0.525606 -0.357217,-0.862378 0,-0.336772 0.136512,-0.641677 0.357217,-0.862378 0.220701,-0.220705 0.525606,-0.357217 0.862378,-0.357217 0.336772,0 0.641677,0.136512 0.862378,0.357217 0.220705,0.220701 0.357217,0.525606 0.357217,0.862378 0,0.336772 -0.136516,0.641673 -0.357217,0.862378 -0.220701,0.220701 -0.525606,0.357217 -0.862378,0.357217 -0.336772,0 -0.641677,-0.136516 -0.862378,-0.357217z"/>
   <path id="_319098864" class="fil2" d="M4.70872 2.43494c0.336772,0 0.641677,0.136512 0.862378,0.357217 0.220705,0.220701 0.357217,0.525606 0.357217,0.862378 0,0.336772 -0.136516,0.641673 -0.357217,0.862378 -0.220701,0.220701 -0.525606,0.357217 -0.862378,0.357217 -0.336772,0 -0.641677,-0.136516 -0.862378,-0.357217 -0.220701,-0.220705 -0.357217,-0.525606 -0.357217,-0.862378 0,-0.336772 0.136512,-0.641677 0.357217,-0.862378 0.220701,-0.220705 0.525606,-0.357217 0.862378,-0.357217z"/>
   <path id="_319098816" class="fil3" d="M1.43667 1.82687l4.96 0c0.0441811,0 0.08,0.0358189 0.08,0.08l0 3.4953c0,0.0441811 -0.0358189,0.08 -0.08,0.08l-4.96 0c-0.0441811,0 -0.08,-0.0358189 -0.08,-0.08l0 -3.4953c0,-0.0441811 0.0358189,-0.08 0.08,-0.08zm4.88 0.16l-4.8 0 0 3.3353 4.8 0 0 -3.3353z"/>
   <path id="_319099344" class="fil3" d="M3.45063 5.32217l0.932079 0c0.0441811,0 0.08,0.0358189 0.08,0.08l0 0.524291c0,0.0441811 -0.0358189,0.08 -0.08,0.08l-0.932079 0c-0.0441811,0 -0.08,-0.0358189 -0.08,-0.08l0 -0.524291c0,-0.0441811 0.0358189,-0.08 0.08,-0.08zm0.852079 0.16l-0.772079 0 0 0.364291 0.772079 0 0 -0.364291z"/>
   <path id="_319099296" class="fil3" d="M2.67863 5.84646c-0.0441811,0 -0.08,0.0358189 -0.08,0.08 0,0.0441811 0.0358189,0.08 0.08,0.08l2.47607 0c0.0441811,0 0.08,-0.0358189 0.08,-0.08 0,-0.0441811 -0.0358189,-0.08 -0.08,-0.08l-2.47607 0z"/>
   <path id="_319099248" class="fil3" d="M4.90654 2.43494c0.201177,0 0.379138,0.143681 0.504213,0.375969 0.117031,0.217339 0.189417,0.515728 0.189417,0.843626 0,0.327898 -0.0723898,0.626283 -0.189417,0.843626 -0.125079,0.232283 -0.303035,0.375969 -0.504213,0.375969 -0.201177,0 -0.379134,-0.143681 -0.504209,-0.375969 -0.117031,-0.217339 -0.189417,-0.515728 -0.189417,-0.843626 0,-0.327902 0.0723858,-0.626287 0.189417,-0.843626 0.125075,-0.232291 0.303031,-0.375969 0.504209,-0.375969zm0.363591 0.451591c-0.0970039,-0.180154 -0.225874,-0.291591 -0.363591,-0.291591 -0.137717,0 -0.266583,0.111433 -0.363587,0.291591 -0.105059,0.195102 -0.170039,0.466524 -0.170039,0.768004 0,0.301476 0.0649803,0.572902 0.170039,0.768004 0.0970039,0.180154 0.22587,0.291591 0.363587,0.291591 0.13772,0 0.266583,-0.111437 0.363591,-0.291591 0.105055,-0.195106 0.170039,-0.466528 0.170039,-0.768004 0,-0.301476 -0.0649803,-0.572902 -0.170039,-0.768004z"/>
   <path id="_319099272" class="fil3" d="M3.91128 3.05222c-0.0441811,0 -0.08,0.0358189 -0.08,0.08 0,0.0441811 0.0358189,0.08 0.08,0.08l1.99052 0c0.0441811,0 0.08,-0.0358189 0.08,-0.08 0,-0.0441811 -0.0358189,-0.08 -0.08,-0.08l-1.99052 0z"/>
   <path id="_319098768" class="fil3" d="M3.81448 3.57453c-0.0441811,0 -0.08,0.0358189 -0.08,0.08 0,0.0441811 0.0358189,0.08 0.08,0.08l2.23165 0c0.0441811,0 0.08,-0.0358189 0.08,-0.08 0,-0.0441811 -0.0358189,-0.08 -0.08,-0.08l-2.23165 0z"/>
   <path id="_319099152" class="fil3" d="M3.91128 4.09685c-0.0441811,0 -0.08,0.0358189 -0.08,0.08 0,0.0441811 0.0358189,0.08 0.08,0.08l1.99052 0c0.0441811,0 0.08,-0.0358189 0.08,-0.08 0,-0.0441811 -0.0358189,-0.08 -0.08,-0.08l-1.99052 0z"/>
   <path id="_319098264" class="fil3" d="M1.78723 4.14699c-0.0441811,0 -0.08,0.0358189 -0.08,0.08 0,0.0441811 0.0358189,0.08 0.08,0.08l1.49356 0c0.0441811,0 0.08,-0.0358189 0.08,-0.08 0,-0.0441811 -0.0358189,-0.08 -0.08,-0.08l-1.49356 0zm0 -1.14494c-0.0441811,0 -0.08,0.0358189 -0.08,0.08 0,0.0441811 0.0358189,0.08 0.08,0.08l1.49356 0c0.0441811,0 0.08,-0.0358189 0.08,-0.08 0,-0.0441811 -0.0358189,-0.08 -0.08,-0.08l-1.49356 0zm0 0.572469c-0.0441811,0 -0.08,0.0358189 -0.08,0.08 0,0.0441811 0.0358189,0.08 0.08,0.08l1.49356 0c0.0441811,0 0.08,-0.0358189 0.08,-0.08 0,-0.0441811 -0.0358189,-0.08 -0.08,-0.08l-1.49356 0z"/>
   <path id="_319098096" class="fil4" d="M4.48332 2.68283c-0.122469,0.0534094 -0.232882,0.129295 -0.326028,0.222445 -0.045126,0.045126 -0.0862008,0.0942992 -0.12263,0.146937l0.266909 0c0.0279961,-0.0881102 0.0619213,-0.169173 0.100764,-0.241311 0.0249646,-0.0463661 0.0520394,-0.0892047 0.0809843,-0.128071z"/>
   <path id="_319098432" class="fil4" d="M4.25906 3.21222l-0.315665 0c-0.0513661,0.111665 -0.0838819,0.233795 -0.0934724,0.362315l0.364437 0c0.00459449,-0.127047 0.0200591,-0.24887 0.0447008,-0.362315z"/>
   <path id="_319098504" class="fil4" d="M4.21436 3.73453l-0.364437 0c0.00959055,0.128516 0.0421102,0.25065 0.0934724,0.362315l0.315665 0c-0.0246417,-0.113445 -0.0401024,-0.235268 -0.0447008,-0.362315z"/>
   <path id="_319097952" class="fil4" d="M4.30157 4.25685l-0.266906 0c0.0364291,0.0526378 0.0775039,0.101811 0.122626,0.146937 0.0931457,0.0931457 0.203559,0.169031 0.326028,0.222445 -0.0289449,-0.0388661 -0.0560197,-0.0817047 -0.0809843,-0.128071 -0.0388425,-0.0721378 -0.0727677,-0.153201 -0.100764,-0.241311z"/>
   <path id="_319098384" class="fil4" d="M4.46999 4.25685c0.0213622,0.0597913 0.0458268,0.115287 0.0729685,0.165689 0.0970039,0.180154 0.22587,0.291591 0.363587,0.291591 0.13772,0 0.266583,-0.111437 0.363591,-0.291591 0.0271378,-0.0504016 0.0516063,-0.105898 0.0729646,-0.165689l-0.87311 0z"/>
   <path id="_319098288" class="fil4" d="M4.42281 4.09685l0.967461 0c0.0266024,-0.111791 0.0434055,-0.233827 0.0483622,-0.362315l-1.06419 0c0.00495669,0.128488 0.0217559,0.250524 0.0483622,0.362315z"/>
   <path id="_319098072" class="fil4" d="M4.37445 3.57453l1.06419 0c-0.00495669,-0.128488 -0.0217559,-0.250524 -0.0483622,-0.362315l-0.967461 0c-0.0266063,0.111787 -0.0434055,0.233827 -0.0483622,0.362315z"/>
   <path id="_319097736" class="fil4" d="M4.46999 3.05222l0.873114 0c-0.0213622,-0.0597913 -0.0458268,-0.115287 -0.0729685,-0.165689 -0.0970039,-0.180154 -0.225874,-0.291591 -0.363591,-0.291591 -0.137717,0 -0.266583,0.111433 -0.363587,0.291591 -0.0271417,0.0504016 -0.0516063,0.105898 -0.0729685,0.165689z"/>
   <path id="_319097304" class="fil4" d="M5.41076 2.81091c0.0388425,0.0721378 0.0727677,0.153201 0.100764,0.241311l0.266906 0c-0.0364291,-0.0526378 -0.0775039,-0.101811 -0.12263,-0.146937 -0.0931457,-0.0931457 -0.203559,-0.169031 -0.326024,-0.222445 0.0289449,0.0388661 0.0560197,0.0817047 0.0809843,0.128071z"/>
   <path id="_319097232" class="fil4" d="M5.86969 3.21222l-0.315661 0c0.0246417,0.113445 0.0401024,0.235268 0.0447008,0.362315l0.364433 0c-0.00959055,-0.12852 -0.0421063,-0.25065 -0.0934724,-0.362315z"/>
   <path id="_319097376" class="fil4" d="M5.96316 3.73453l-0.364433 0c-0.00459843,0.127047 -0.020063,0.24887 -0.0447008,0.362315l0.315661 0c0.0513622,-0.111665 0.0838819,-0.233799 0.0934724,-0.362315z"/>
   <path id="_319097712" class="fil4" d="M5.77842 4.25685l-0.266906 0c-0.0279921,0.0881102 -0.0619173,0.169173 -0.10076,0.241311 -0.0249685,0.0463661 -0.0520394,0.0892047 -0.0809882,0.128071 0.122469,-0.0534134 0.232882,-0.129299 0.326028,-0.222445 0.045122,-0.045126 0.0861969,-0.0942992 0.122626,-0.146937z"/>
   <polygon id="_319097256" class="fil5" points="4.3027,5.48217 3.53063,5.48217 3.53063,5.84646 4.3027,5.84646 "/>
   <path id="_319097400" class="fil6" d="M5.6256 3.05222l0.152827 0c-0.0364291,-0.0526378 -0.0775039,-0.101811 -0.12263,-0.146937 -0.0931457,-0.0931457 -0.203559,-0.169031 -0.326024,-0.222445 0.0123701,0.0166063 0.0243976,0.0339409 0.0360591,0.0519606 0.021126,0.0184173 0.0416142,0.0375472 0.0614252,0.0573583 0.0771457,0.0771457 0.144004,0.164579 0.198343,0.260063z"/>
   <path id="_319097328" class="fil6" d="M5.96316 3.57453c-0.00959055,-0.12852 -0.0421063,-0.25065 -0.0934724,-0.362315l-0.167906 0c0.0441929,0.113504 0.071878,0.23526 0.0801063,0.362315l0.181272 0z"/>
   <path id="_319096776" class="fil6" d="M5.86969 4.09685c0.0513622,-0.111665 0.0838819,-0.233799 0.0934724,-0.362315l-0.181272 0c-0.00822835,0.127055 -0.0359134,0.248811 -0.0801063,0.362315l0.167906 0z"/>
   <path id="_319096608" class="fil6" d="M5.6558 4.40378c0.0451181,-0.045126 0.0861969,-0.0942992 0.122626,-0.146937l-0.152827 0c-0.0543346,0.0954843 -0.121193,0.182917 -0.198339,0.260063 -0.019811,0.019811 -0.0402992,0.0389409 -0.0614252,0.0573543 -0.0116654,0.0180236 -0.0236929,0.0353583 -0.036063,0.0519646 0.122469,-0.0534134 0.232882,-0.129299 0.326028,-0.222445z"/>
   <polygon id="_319096920" class="fil7" points="6.05167,1.98687 6.05167,5.32217 6.31667,5.32217 6.31667,1.98687 "/>
   <path id="_319096464" class="fil3" d="M4.90654 2.43494c0.336772,0 0.641677,0.136512 0.862378,0.357217 0.220705,0.220701 0.357217,0.525606 0.357217,0.862378 0,0.336772 -0.136516,0.641673 -0.357217,0.862378 -0.220701,0.220701 -0.525606,0.357217 -0.862378,0.357217 -0.336772,0 -0.641677,-0.136516 -0.862378,-0.357217 -0.220701,-0.220705 -0.357217,-0.525606 -0.357217,-0.862378 0,-0.336772 0.136512,-0.641677 0.357217,-0.862378 0.220701,-0.220705 0.525606,-0.357217 0.862378,-0.357217zm0.749252 0.470343c-0.19174,-0.191744 -0.456646,-0.310343 -0.749252,-0.310343 -0.292602,0 -0.557512,0.118598 -0.749252,0.310343 -0.191744,0.19174 -0.310343,0.456646 -0.310343,0.749252 0,0.292602 0.118602,0.557508 0.310343,0.749252 0.19174,0.19174 0.45665,0.310343 0.749252,0.310343 0.292602,0 0.557512,-0.118602 0.749252,-0.310343 0.19174,-0.191744 0.310343,-0.45665 0.310343,-0.749252 0,-0.292606 -0.118598,-0.557512 -0.310343,-0.749252z"/>
  </g>
 </g>
</svg>
